<svg xmlns="http://www.w3.org/2000/svg" data-name="Layer 1" viewBox="0 0 512 512"><path d="M128.14,263.5a7.5,7.5,0,1,0,7.5,7.5A7.5,7.5,0,0,0,128.14,263.5Zm0,135a7.5,7.5,0,1,0,7.5,7.5A7.5,7.5,0,0,0,128.14,398.5Zm0-90a7.5,7.5,0,1,0,7.5,7.5A7.5,7.5,0,0,0,128.14,308.5Zm0,135a7.5,7.5,0,1,0,7.5,7.5A7.5,7.5,0,0,0,128.14,443.5ZM262.52,202.26v-5.63A47.44,47.44,0,0,0,224,150.07l-9.25-1.76a42.62,42.62,0,0,0,15.79-33.12V92.79a20.14,20.14,0,0,0-4.16-12.25,18.52,18.52,0,0,0,4.16-11.71V50.9a7.5,7.5,0,0,0-7.5-7.5H163.8c-11,0-18.67,10.68-18.67,20.27V91.16a6.84,6.84,0,0,0,.05.79c0,.28-.05.56-.05.84v22.4a42.62,42.62,0,0,0,15.79,33.12l-9.25,1.76a47.44,47.44,0,0,0-38.53,46.56v5.63a29,29,0,0,0,29,29h91.38A29,29,0,0,0,262.52,202.26ZM160.13,63.67c0-2.49,2.19-5.27,3.67-5.27h51.73V68.83a3.68,3.68,0,0,1-3.67,3.67,6.85,6.85,0,0,0-.79,0c-.28,0-.56,0-.84,0h-44.8a20.23,20.23,0,0,0-5.3.72Zm0,51.52V92.79a5.3,5.3,0,0,1,5.3-5.29h44.8a5.3,5.3,0,0,1,5.3,5.29v22.4a27.7,27.7,0,1,1-55.4,0Zm34.92,42.08v2.1a7.22,7.22,0,1,1-14.44,0v-2.1a42.35,42.35,0,0,0,14.44,0Zm-66.91,45v-5.63a32.44,32.44,0,0,1,26.33-31.83l11.38-2.16a22.22,22.22,0,0,0,44,0l11.38,2.16a32.44,32.44,0,0,1,26.33,31.83v5.63a14,14,0,0,1-14,14H142.14A14,14,0,0,1,128.14,202.26Zm0,151.24a7.5,7.5,0,1,0,7.5,7.5A7.5,7.5,0,0,0,128.14,353.5ZM391.36,216.27H291.7a7.5,7.5,0,0,0,0,15h99.66a7.5,7.5,0,0,0,0-15Zm0-30H291.7a7.5,7.5,0,0,0,0,15h99.66a7.5,7.5,0,0,0,0-15Zm0-141.27H291.7a7.5,7.5,0,0,0,0,15h99.66a7.5,7.5,0,0,0,0-15ZM291.7,90h54.66a7.5,7.5,0,0,0,0-15H291.7a7.5,7.5,0,0,0,0,15ZM406.36,0H105.64a37.54,37.54,0,0,0-37.5,37.5v437a37.54,37.54,0,0,0,37.5,37.5H406.36a37.54,37.54,0,0,0,37.5-37.5V37.5A37.54,37.54,0,0,0,406.36,0Zm22.5,474.5a22.52,22.52,0,0,1-22.5,22.5H105.64a22.52,22.52,0,0,1-22.5-22.5V37.5A22.52,22.52,0,0,1,105.64,15H406.36a22.52,22.52,0,0,1,22.5,22.5Zm-37.5-76H167.72a7.5,7.5,0,0,0,0,15H391.36a7.5,7.5,0,0,0,0-15Zm0,45H167.72a7.5,7.5,0,0,0,0,15H391.36a7.5,7.5,0,0,0,0-15Zm0-180H167.72a7.5,7.5,0,0,0,0,15H391.36a7.5,7.5,0,0,0,0-15Zm0,90H167.72a7.5,7.5,0,0,0,0,15H391.36a7.5,7.5,0,0,0,0-15Zm0-45H167.72a7.5,7.5,0,0,0,0,15H391.36a7.5,7.5,0,0,0,0-15Z"/></svg>